# xmcd
#
# Track frame offsets:
#	150
#	18007
#	63974
#	80877
#	97442
#	114252
#	126574
#	145453
#	159514
#	174104
#	198309
#	214472
#	228258
#	245672
#	261585
#	282676
#	299029
#	312661
#
# Disc length: 4517 seconds
#
# Revision: 0
# Processed by: cddbd v1.5.2PL0 Copyright (c) Steve Scherf et al.
# Submitted via: audiograbber 1.83.01
#
DISCID=2711a312
DTITLE=Various Artist - Stimmen der DDR 1
DYEAR=1900
DGENRE=DDR
TTITLE0=City - Am Fenster
TTITLE1=electra - Tritt ein in den Dom
TTITLE2=Silly - Battalion D'amour
TTITLE3=4 PS - Vor unserem Haus
TTITLE4=Pankow - Rock'n'Roll im Stadtpark - live
TTITLE5=Puhdys - Alt wie ein Baum
TTITLE6=Kreis - Ich war der 5. Beatle
TTITLE7=Klaus Renft Combo - Wer die Rose ehrt
TTITLE8=Berluc - Rocker von der Küste
TTITLE9=Karat - Der blaue Planet
TTITLE10=Magdeburg - Oh, oh, Otto
TTITLE11=Panta Rhei - Lied vom Ludwig
TTITLE12=Jürgen Kerth - Und sie ist glücklich dazu
TTITLE13=Dialog - Das nenn ich Glück
TTITLE14=Stern Meißen - Was fang ich an
TTITLE15=Mona Lise - Harmonie von gestern
TTITLE16=Omega - Sie ruft alle Tage herbei
TTITLE17=Bayon - Die Nacht
EXTD=
EXTT0=
EXTT1=
EXTT2=
EXTT3=
EXTT4=
EXTT5=
EXTT6=
EXTT7=
EXTT8=
EXTT9=
EXTT10=
EXTT11=
EXTT12=
EXTT13=
EXTT14=
EXTT15=
EXTT16=
EXTT17=
PLAYORDER=
